<svg version="1.2" baseProfile="tiny" xmlns="http://www.w3.org/2000/svg" viewBox="0 0 136.5 58" height="50" overflow="visible" xml:space="preserve"><g fill="#141819"><path d="M0 33.4h1v6.3c0 1.1.5 1.7 1.7 1.7s1.7-.5 1.7-1.7v-6.3h1v6.3c0 1.8-1 2.5-2.7 2.5-1.7.1-2.7-.7-2.7-2.5v-6.3zM8.1 42.2v-8.8h1.3l3.2 7h.1v-7h1v8.8h-1.3l-3.3-7.3H9v7.3zM16.5 33.4h1v8.7h-1zM24.4 33.4h1l-2.3 8.8h-1.4l-2.3-8.8h1.1l1.9 7.5h.1zM27.4 42.2v-8.8h4.7v.9h-3.7v2.9h3.2v.9h-3.2v3.2h3.9v.9zM35.3 37.6h1.8c1.1 0 1.6-.5 1.6-1.6s-.5-1.6-1.6-1.6h-1.8v3.2zm0 4.6h-1v-8.7h3c1.6 0 2.5.9 2.5 2.5 0 1.3-.6 2-1.2 2.3l1.3 3.9h-1.1l-1.2-3.6h-2.3v3.6zM46.7 35.6c-.1-1-.6-1.4-1.7-1.4-1 0-1.7.4-1.7 1.4 0 1 .8 1.2 1.9 1.6 1.4.4 2.7.9 2.7 2.6 0 1.7-1.1 2.5-2.8 2.5-1.8 0-2.8-.8-2.9-2.5l1-.1c.1 1.2.7 1.7 1.9 1.7 1.1 0 1.8-.5 1.8-1.5s-.6-1.3-1.9-1.7c-1.4-.4-2.6-.8-2.6-2.5s1.1-2.4 2.8-2.4c1.6 0 2.6.6 2.8 2.2l-1.3.1zM50.2 33.4h1v8.7h-1zM55 41.3h1.9c1 0 1.7-.5 1.7-1.5v-4c0-1-.6-1.5-1.7-1.5H55v7zm-1-7.9h2.8c1.8 0 2.8.7 2.8 2.5v3.7c0 1.8-1 2.5-2.8 2.5H54v-8.7zM63.2 39.1H66l-1.3-4.6h-.1l-1.4 4.6zm-.8 3.1h-1.1l2.6-8.7h1.5l2.6 8.7h-1.1l-.6-2.2H63l-.6 2.2zM70.9 41.3h1.9c1 0 1.7-.5 1.7-1.5v-4c0-1-.6-1.5-1.7-1.5h-1.9v7zm-1.1-7.9h2.8c1.8 0 2.8.7 2.8 2.5v3.7c0 1.8-1 2.5-2.8 2.5h-2.8v-8.7zM81.3 42.2v-8.8h1.3l3.2 7h.1v-7h1v8.8h-1.3l-3.3-7.3h-.1v7.3zM90.7 39.1h2.8l-1.3-4.6H92l-1.3 4.6zm-.9 3.1h-1.1l2.6-8.7h1.5l2.6 8.7h-1.1l-.6-2.2h-3.3l-.6 2.2zM101.2 36.1v-.4c0-1.1-.5-1.5-1.7-1.5-1.1 0-1.8.4-1.8 1.5v4.1c0 1.1.6 1.5 1.8 1.5 1.1 0 1.7-.5 1.7-1.5v-.4l1 .1v.1c0 1.8-.9 2.6-2.7 2.6-1.8 0-2.8-.7-2.8-2.5v-4c0-1.8 1-2.5 2.8-2.5 1.8 0 2.7.7 2.7 2.6v.2l-1 .1zM104.7 33.4h1v8.7h-1zM109.3 39.9c0 1.1.7 1.5 1.8 1.5s1.8-.4 1.8-1.5v-4.1c0-1.1-.7-1.5-1.8-1.5s-1.8.4-1.8 1.5v4.1zm-1-4.1c0-1.9 1-2.5 2.8-2.5 1.8 0 2.8.7 2.8 2.5v3.9c0 1.9-1 2.5-2.8 2.5-1.8 0-2.8-.7-2.8-2.5v-3.9zM116.5 42.2v-8.8h1.3l3.2 7h.1v-7h.9v8.8h-1.2l-3.3-7.3h-.1v7.3zM125.9 39.1h2.8l-1.3-4.6h-.1l-1.4 4.6zm-.9 3.1h-1.1l2.6-8.7h1.5l2.6 8.7h-1.1l-.6-2.1h-3.3l-.6 2.1zM132.5 42.2v-8.8h1v7.9h3v.9zM1.2 57h1.9c1 0 1.7-.5 1.7-1.5v-4c0-1-.6-1.5-1.7-1.5H1.2v7zM.1 49.1H3c1.8 0 2.8.7 2.8 2.5v3.7c0 1.8-1 2.5-2.8 2.5H.1v-8.7zM8.3 57.9v-8.8H13v.9H9.3v2.9h3.3v.9H9.3V57h3.9v.9zM19.7 50.1h-2.1v-1h5.1v1h-2v7.8h-1zM25.6 53.3h1.8c1.1 0 1.6-.5 1.6-1.6s-.5-1.6-1.6-1.6h-1.8v3.2zm0 4.6h-1v-8.7h3c1.6 0 2.5.9 2.5 2.5 0 1.3-.6 2-1.2 2.3l1.3 3.9h-1.1l-1.2-3.6h-2.3v3.6zM32.8 57.9v-8.8h4.7v.9h-3.7v2.9H37v.9h-3.2V57h3.9v.9zM44 51.3c-.1-1-.6-1.4-1.7-1.4-1 0-1.7.4-1.7 1.4 0 1 .8 1.2 1.9 1.6 1.4.4 2.7.9 2.7 2.6 0 1.7-1.1 2.5-2.8 2.5-1.8 0-2.8-.8-2.9-2.5l1-.1c.1 1.2.7 1.7 1.9 1.7 1.1 0 1.8-.5 1.8-1.5s-.6-1.3-1.9-1.7c-1.4-.4-2.6-.8-2.6-2.5s1.1-2.4 2.8-2.4c1.6 0 2.6.6 2.8 2.2l-1.3.1zM51.8 57h1.9c1.1 0 1.7-.5 1.7-1.5v-4c0-1-.6-1.5-1.7-1.5h-1.9v7zm-1-7.9h2.8c1.8 0 2.8.7 2.8 2.5v3.7c0 1.8-1 2.5-2.8 2.5h-2.8v-8.7zM58.9 57.9v-8.8h4.7v.9h-3.7v2.9h3.3v.9h-3.3V57h3.9v.9zM69.2 57.9v-8.8h4.4v.9h-3.4v2.9h3v.9h-3v4.1zM75.6 57.9v-8.8h4.7v.9h-3.7v2.9h3.2v.9h-3.2V57h3.9v.9zM83.5 57h2.1c1.1 0 1.7-.6 1.7-1.6 0-1.1-.6-1.6-1.7-1.6h-2V57zm0-4.1h2c1 0 1.5-.5 1.5-1.4 0-1-.5-1.4-1.5-1.4h-2v2.8zm-1-3.8h3.3c1.6 0 2.3.7 2.3 2.2 0 1-.3 1.6-1 1.9v.1c.6.2 1.2.9 1.2 2.1 0 1.5-.7 2.4-2.4 2.4h-3.4v-8.7zM91.9 53.3h1.8c1.1 0 1.6-.5 1.6-1.6s-.5-1.6-1.6-1.6h-1.8v3.2zm0 4.6h-1v-8.7h3c1.6 0 2.5.9 2.5 2.5 0 1.3-.6 2-1.2 2.3l1.3 3.9h-1.1l-1.2-3.6h-2.3v3.6zM99 57.9v-8.8h4.7v.9H100v2.9h3.3v.9H100V57h3.9v.9zM107 53.3h1.8c1.1 0 1.6-.5 1.6-1.6s-.5-1.6-1.6-1.6H107v3.2zm0 4.6h-1v-8.7h3c1.6 0 2.5.9 2.5 2.5 0 1.3-.6 2-1.2 2.3l1.3 3.9h-1.1l-1.2-3.6H107v3.6zM114.9 55.6c0 1.1.7 1.5 1.8 1.5s1.8-.4 1.8-1.5v-4.1c0-1.1-.7-1.5-1.8-1.5s-1.8.4-1.8 1.5v4.1zm-1-4.1c0-1.9 1-2.5 2.8-2.5 1.8 0 2.8.7 2.8 2.5v3.9c0 1.9-1 2.5-2.8 2.5-1.8 0-2.8-.7-2.8-2.5v-3.9zM0 23.7h96.4v3.6H0zM69.1 17.5V0h11.5v2.9h-8V7h7.3v2.9h-7.3v4.7H81v2.9H69.1zm16.2 0V0h11v2.9h-7.6V7h6.9v2.9h-6.9v7.6h-3.4zm-30.8 0H51V0h7.2C62.1 0 64 1.8 64 5.3c0 2.8-1.4 4.1-2.7 4.6l2.9 7.6h-3.8l-2.4-7h-3.5v7zm0-9.8h2.9c2 0 3-.6 3-2.5s-1-2.5-3-2.5h-2.9v5zM39.9 2.9h-4.4V0h12.4v2.9h-4.4v14.6H40V2.9zM18.8 17.5V0h4.1l5.8 11.7h.2V0h3.4v17.5h-4L22.2 5.3H22v12.2h-3.2zM.1 0h3.5v12.1c0 2 1 2.8 3 2.8s3-.8 3-2.8V0h3.5v12.1c0 3.8-2.3 5.7-6.5 5.7S.1 15.9.1 12.1V0z"/></g></svg>