<?xml version="1.0" encoding="UTF-8" standalone="no"?>
<!-- Creator: fig2dev Version 3.2.9 -->
<!-- CreationDate: 2024-08-18 09:26:56 -->
<!-- Magnification: 1.05 -->
<svg	xmlns="http://www.w3.org/2000/svg"
	xmlns:xlink="http://www.w3.org/1999/xlink"
	width="471pt" height="215pt"
	viewBox="1806 2012 7476 3403">
<g fill="none">
<!-- Line -->
<polyline points=" 3735,3690 7425,3690"
	stroke="#000000" stroke-width="8px"/>
<!-- Line -->
<polyline points=" 7425,3150 3735,3150"
	stroke="#000000" stroke-width="8px"/>
<!-- Line -->
<polyline points=" 7425,3150 7426,3153 7429,3159 7434,3170 7441,3185 7450,3205 7461,3228 7472,3254
 7482,3280 7492,3305 7501,3329 7508,3352 7513,3372 7516,3390 7517,3405 7515,3420
 7510,3436 7503,3451 7492,3465 7478,3479 7462,3492 7444,3505 7425,3518 7406,3531
 7388,3544 7372,3556 7358,3568 7347,3579 7340,3590 7335,3600 7333,3613 7337,3625
 7347,3637 7361,3649 7379,3662 7396,3673 7410,3682 7420,3687 7424,3690 7425,3690
"
	stroke="#000000" stroke-width="8px" stroke-linejoin="bevel"/>
<!-- Line -->
<polyline points=" 3735,3690 3734,3687 3731,3681 3726,3669 3719,3653 3710,3633 3699,3608 3689,3582
 3678,3555 3668,3529 3659,3504 3652,3482 3647,3463 3644,3446 3643,3432 3645,3420
 3650,3408 3657,3398 3668,3390 3682,3384 3698,3378 3716,3374 3735,3371 3754,3367
 3772,3364 3788,3359 3802,3354 3813,3347 3820,3339 3825,3330 3827,3320 3826,3308
 3821,3294 3815,3278 3805,3260 3794,3241 3781,3220 3769,3201 3757,3183 3748,3169
 3741,3159 3737,3153 3735,3150"
	stroke="#000000" stroke-width="8px" stroke-linejoin="bevel"/>
<!-- Line -->
<rect x="7290" y="2025" width="1980" height="3060"
	stroke="#000000" stroke-width="8px"/>
<!-- Text -->
<text xml:space="preserve" x="7740" y="3420" fill="#000000" font-family="Courier" font-style="normal" font-weight="normal" font-size="144" text-anchor="start">fd=open(....)</text>
<!-- Line -->
<defs>
<clipPath id="cp0">
	<path clip-rule="evenodd" d="M 1806,2012 H 9282 V 5415 H 1806 z
		M 5915,3237 5934,3360 5860,3260 5936,3384 5949,3379z"/>
</clipPath>
</defs>
<polyline points=" 5715,2835 5940,3375" clip-path="url(#cp0)"
	stroke="#000000" stroke-width="8px"/>
<!-- Forward arrow to point 5940,3375 -->
<polyline points=" 5915,3237 5934,3360 5860,3260"
	stroke="#000000" stroke-width="8px" stroke-miterlimit="8"/>
<!-- Line -->
<defs>
<clipPath id="cp1">
	<path clip-rule="evenodd" d="M 1806,2012 H 9282 V 5415 H 1806 z
		M 2940,4637 2970,4517 3000,4637 2977,4493 2963,4493z"/>
</clipPath>
</defs>
<polyline points=" 2970,5220 2970,4500" clip-path="url(#cp1)"
	stroke="#000000" stroke-width="8px"/>
<!-- Forward arrow to point 2970,4500 -->
<polyline points=" 2940,4637 2970,4517 3000,4637"
	stroke="#000000" stroke-width="8px" stroke-miterlimit="8"/>
<!-- Line -->
<defs>
<clipPath id="cp2">
	<path clip-rule="evenodd" d="M 1806,2012 H 9282 V 5415 H 1806 z
		M 7603,4392 7725,4372 7627,4447 7749,4368 7743,4356z"/>
</clipPath>
</defs>
<polyline points=" 6705,4815 7740,4365" clip-path="url(#cp2)"
	stroke="#000000" stroke-width="8px"/>
<!-- Forward arrow to point 7740,4365 -->
<polyline points=" 7603,4392 7725,4372 7627,4447"
	stroke="#000000" stroke-width="8px" stroke-miterlimit="8"/>
<!-- Text -->
<text xml:space="preserve" x="5085" y="2790" fill="#000000" font-family="Courier" font-style="normal" font-weight="normal" font-size="144" text-anchor="start">buffer</text>
<!-- Text -->
<text xml:space="preserve" x="2700" y="5400" fill="#000000" font-family="Courier" font-style="normal" font-weight="normal" font-size="144" text-anchor="start">disco</text>
<!-- Text -->
<text xml:space="preserve" x="5400" y="4725" fill="#000000" font-family="Courier" font-style="normal" font-weight="normal" font-size="144" text-anchor="start">programa en </text>
<!-- Text -->
<text xml:space="preserve" x="5400" y="4940" fill="#000000" font-family="Courier" font-style="normal" font-weight="normal" font-size="144" text-anchor="start">ejecucion</text>
<!-- Arc -->
<path d="M 1818,4703 A 1677 1677 0 0 0 3832 4703"
	stroke="#000000" stroke-width="8px"/>
<!-- Arc -->
<path d="M 1818,2689 A 1677 1677 0 0 0 3832 2689"
	stroke="#000000" stroke-width="8px"/>
<!-- Ellipse -->
<ellipse cx="2824" cy="2353" rx="1006" ry="334"
	stroke="#000000" stroke-width="8px"/>
<!-- Line -->
<polyline points=" 3832,2520 3832,4703"
	stroke="#000000" stroke-width="8px"/>
<!-- Line -->
<polyline points=" 1818,2520 1818,4703"
	stroke="#000000" stroke-width="8px"/>
<!-- Text -->
<text xml:space="preserve" x="2835" y="3690" fill="#000000" font-family="Courier" font-style="normal" font-weight="normal" font-size="144" text-anchor="middle">archivo.txt</text>
</g>
</svg>
