<svg xmlns="http://www.w3.org/2000/svg" xmlns:xlink="http://www.w3.org/1999/xlink" version="1.1" width="442px" height="231px" viewBox="-0.5 -0.5 442 231"><defs/><g><g id="cell-2"><path d="M 1 143.33 L 1 36.67 C 1 21.94 27.86 10 61 10 C 94.14 10 121 21.94 121 36.67 L 121 143.33 C 121 158.06 94.14 170 61 170 C 27.86 170 1 158.06 1 143.33 Z" fill="rgb(255, 255, 255)" stroke="rgb(0, 0, 0)" stroke-width="2" stroke-miterlimit="10" pointer-events="all"/><path d="M 1 36.67 C 1 51.39 27.86 63.33 61 63.33 C 94.14 63.33 121 51.39 121 36.67" fill="none" stroke="rgb(0, 0, 0)" stroke-width="2" stroke-miterlimit="10" pointer-events="all"/></g><g id="cell-3"><path d="M 436 10 C 438.76 10 441 12.24 441 15 L 441 161.5 Q 401 146.2 361 161.5 Q 321 176.8 281 161.5 L 281 18.5 L 281 15 C 281 12.24 283.24 10 286 10 Z" fill="rgb(255, 255, 255)" stroke="rgb(0, 0, 0)" stroke-width="2" stroke-miterlimit="10" pointer-events="all"/></g><g id="cell-4"><path d="M 111 80.25 Q 156 91.95 201 80.25 Q 246 68.55 291 80.25 L 291 99.75 Q 246 88.05 201 99.75 Q 156 111.45 111 99.75 L 111 80.25 Z" fill="rgb(255, 255, 255)" stroke="rgb(0, 0, 0)" stroke-width="2" stroke-miterlimit="10" pointer-events="all"/></g><g id="cell-5"><rect x="291" y="60" width="140" height="20" fill="none" stroke="none" pointer-events="all"/><g fill="rgb(0, 0, 0)" font-family="Courier New" font-weight="bold" text-anchor="middle" font-size="15px"><text x="360.5" y="76">fd = open(...)</text></g></g><g id="cell-6"><rect x="6" y="100" width="110" height="20" fill="none" stroke="none" pointer-events="all"/><g fill="rgb(0, 0, 0)" font-family="Courier New" font-weight="bold" text-anchor="middle" font-size="15px"><text x="60.5" y="116">archivo.txt</text></g></g><g id="cell-7"><rect x="161" y="0" width="70" height="20" fill="none" stroke="none" pointer-events="all"/><g fill="rgb(0, 0, 0)" font-family="Courier New" font-weight="bold" text-anchor="middle" font-size="15px"><text x="195.5" y="16">Buffer</text></g></g><g id="cell-11"><path d="M 61 200 L 61 180 L 61 190 L 61 176.37" fill="none" stroke="rgb(0, 0, 0)" stroke-miterlimit="10" pointer-events="stroke"/><path d="M 61 171.12 L 64.5 178.12 L 61 176.37 L 57.5 178.12 Z" fill="rgb(0, 0, 0)" stroke="rgb(0, 0, 0)" stroke-miterlimit="10" pointer-events="all"/></g><g id="cell-8"><rect x="31" y="200" width="60" height="20" fill="none" stroke="none" pointer-events="all"/><g fill="rgb(0, 0, 0)" font-family="Courier New" font-weight="bold" text-anchor="middle" font-size="15px"><text x="60.5" y="216">Disco</text></g></g><g id="cell-12"><path d="M 361 190 L 361 170 L 361 180 L 361 166.37" fill="none" stroke="rgb(0, 0, 0)" stroke-miterlimit="10" pointer-events="stroke"/><path d="M 361 161.12 L 364.5 168.12 L 361 166.37 L 357.5 168.12 Z" fill="rgb(0, 0, 0)" stroke="rgb(0, 0, 0)" stroke-miterlimit="10" pointer-events="all"/></g><g id="cell-9"><rect x="306" y="190" width="110" height="40" fill="none" stroke="none" pointer-events="all"/><g fill="rgb(0, 0, 0)" font-family="Courier New" font-weight="bold" text-anchor="middle" font-size="15px"><text x="360.5" y="207">Programa en</text><text x="360.5" y="225">ejecución</text></g></g><g id="cell-10"><path d="M 196.98 19 L 197.84 73.62" fill="none" stroke="rgb(0, 0, 0)" stroke-miterlimit="10" pointer-events="stroke"/><path d="M 197.92 78.87 L 194.31 71.93 L 197.84 73.62 L 201.31 71.82 Z" fill="rgb(0, 0, 0)" stroke="rgb(0, 0, 0)" stroke-miterlimit="10" pointer-events="all"/></g></g></svg>